<svg xmlns="http://www.w3.org/2000/svg" viewBox="0 0 19.23 20.25"><defs><style>.cls-1,.cls-12,.cls-2,.cls-3,.cls-4,.cls-5,.cls-6,.cls-7,.cls-8,.cls-9{fill-rule:evenodd;}.cls-1{opacity:0.2;}.cls-11,.cls-2{fill:#fff;}.cls-3{fill:#6e6e6e;}.cls-4{fill:#474747;}.cls-5{fill:#5e5e5e;}.cls-6{fill:gray;}.cls-7{fill:#8f8f8f;}.cls-8{fill:#e6e6e6;}.cls-10,.cls-9{fill:none;stroke:#474747;stroke-miterlimit:22.93;stroke-width:0.99px;}.cls-12{opacity:0.1;}</style></defs><title>helpNormal</title><g id="Layer_2" data-name="Layer 2"><g id="Layer_1-2" data-name="Layer 1"><path class="cls-1" d="M2.07,2.85c-2.75,2.73-2.76,12.63,0,15.37s12.42,2.71,15.13,0,2.73-12.63,0-15.37S4.84.09,2.07,2.85Z"/><path class="cls-2" d="M2.07,2.07C-.68,4.8-.69,14.7,2.05,17.44s12.42,2.71,15.13,0,2.73-12.63,0-15.37S4.84-.69,2.07,2.07Z"/><path class="cls-3" d="M2.77,2.31C.29,4.78.28,13.75,2.76,16.23s11.25,2.45,13.71,0,2.48-11.45,0-13.92S5.29-.19,2.77,2.31Z"/><path class="cls-4" d="M16.47,14.35c-2.46,2.45-11.25,2.45-13.71,0-1.1-1.1-1.72-3.48-1.84-6-.15,3.15.46,6.51,1.84,7.88,2.46,2.45,11.25,2.45,13.71,0,1.38-1.37,2-4.74,1.84-7.88C18.19,10.87,17.57,13.25,16.47,14.35Z"/><path class="cls-5" d="M2,13.21a4.28,4.28,0,0,0,.78,1.14c2.46,2.45,11.25,2.45,13.71,0,.95-.95,1.53-2.84,1.76-5C13.62,12.79,8.19,14,2,13.21Z"/><path class="cls-6" d="M2.77,2.31A7.15,7.15,0,0,0,1.21,5.93C5.51,1.45,14.15.74,17.81,5a6.06,6.06,0,0,0-1.35-2.67C13.95-.19,5.29-.19,2.77,2.31Z"/><path class="cls-7" d="M4.74,1.71c-1.06.3-1.91,1-1.91,1.63s.86.84,1.91.54,1.91-1,1.91-1.63S5.79,1.41,4.74,1.71Z"/><path class="cls-7" d="M7.91.9c-.6,0-1.14.33-1.2.64s.36.55,1,.51,1.13-.33,1.2-.64S8.51.86,7.91.9Z"/><path class="cls-7" d="M15.21,13c-.67.32-1.15.91-1.08,1.31s.67.46,1.34.14,1.15-.91,1.08-1.31S15.87,12.68,15.21,13Z"/><path class="cls-6" d="M18.23,9.4c-.22,2.11-.81,4-1.76,5-2.46,2.45-11.25,2.45-13.71,0A4.28,4.28,0,0,1,2,13.21,13,13,0,0,1,.93,8.34c0,.37,0,.74,0,1.11,0-.25,0-.51,0-.76.12,2.52.73,4.91,1.84,6,2.46,2.45,11.25,2.45,13.71,0,1.1-1.1,1.72-3.48,1.84-6,0,.25,0,.51,0,.76,0-.37,0-.74,0-1.11C18.29,8.7,18.26,9.05,18.23,9.4Z"/><path class="cls-8" d="M2.05,17C.71,15.68,0,12.64,0,9.56,0,12.78.65,16,2.05,17.44c2.71,2.71,12.42,2.71,15.13,0,1.4-1.4,2.08-4.66,2.05-7.88,0,3.08-.71,6.12-2.05,7.46C14.47,19.72,4.76,19.72,2.05,17Z"/><path class="cls-9" d="M5.93,5.25A1.32,1.32,0,0,0,8,6.78c1-1,2-.54,2-.36s0,.37-.27.57-1.21.25-1.54,1-.27,2.43,1,2.4c1.64,0,1-1,1.61-1.38s2.42-.73,2.45-2.52C13.38,2.73,6.92,2.63,5.93,5.25Z"/><circle class="cls-10" cx="9.29" cy="12.59" r="1.37"/><circle class="cls-11" cx="9.29" cy="12.59" r="1.37"/><path class="cls-2" d="M5.93,5.25A1.32,1.32,0,0,0,8,6.78c1-1,2-.54,2-.36s0,.37-.27.57-1.21.25-1.54,1-.27,2.43,1,2.4c1.64,0,1-1,1.61-1.38s2.42-.73,2.45-2.52C13.38,2.73,6.92,2.63,5.93,5.25Z"/><path class="cls-12" d="M8.23,12.18a1.36,1.36,0,0,1,.13-.59,1.37,1.37,0,1,0,2.16,1.6,1.37,1.37,0,0,1-2.3-1Z"/><path class="cls-12" d="M8.54,7.62l0,0A1.28,1.28,0,0,0,8.24,8c-.33.8-.27,2.43,1,2.4.89,0,1.11-.3,1.23-.63a1.74,1.74,0,0,1-.92.21C8.27,10,8.21,8.42,8.54,7.62Z"/><path class="cls-12" d="M8.33,6.37A1.32,1.32,0,0,1,6.24,4.83a1.94,1.94,0,0,1,.13-.27,2.07,2.07,0,0,0-.44.69A1.32,1.32,0,0,0,8,6.78c1-1,2-.54,2-.36a.44.44,0,0,1,0,.16h0c.32-.21.33-.4.27-.57S9.37,5.33,8.33,6.37Z"/></g></g></svg>